<svg width="734" height="734" viewBox="0 0 734 734" fill="none" xmlns="http://www.w3.org/2000/svg">
<path d="M183.333 233.333C210.948 233.333 233.333 210.948 233.333 183.333C233.333 155.719 210.948 133.333 183.333 133.333C155.719 133.333 133.333 155.719 133.333 183.333C133.333 210.948 155.719 233.333 183.333 233.333Z" fill="white"/>
<path d="M133.333 300C133.333 281.591 148.257 266.667 166.667 266.667H200C218.409 266.667 233.333 281.59 233.333 300V566.667C233.333 585.077 218.409 600 200 600H166.667C148.257 600 133.333 585.077 133.333 566.667V300Z" fill="white"/>
<path d="M333.333 600H366.667C385.077 600 400 585.077 400 566.667V416.667C400 366.667 500 333.333 500 400V566.68C500 585.09 514.923 600 533.333 600H566.667C585.077 600 600 585.077 600 566.667V366.667C600 300 550 266.667 483.333 266.667C416.667 266.667 400 316.667 400 316.667V300C400 281.59 385.077 266.667 366.667 266.667H333.333C314.923 266.667 300 281.591 300 300V566.667C300 585.077 314.923 600 333.333 600Z" fill="white"/>
<path fill-rule="evenodd" clip-rule="evenodd" d="M633.333 0C688.563 0 733.333 44.7717 733.333 100V633.333C733.333 688.563 688.563 733.333 633.333 733.333H100C44.7717 733.333 0 688.563 0 633.333V100C0 44.7717 44.7717 0 100 0H633.333ZM633.333 66.6667C651.743 66.6667 666.667 81.5907 666.667 100V633.333C666.667 651.743 651.743 666.667 633.333 666.667H100C81.5907 666.667 66.6667 651.743 66.6667 633.333V100C66.6667 81.5907 81.5907 66.6667 100 66.6667H633.333Z" fill="white"/>
</svg>
