<svg width="488" height="800" viewBox="0 0 488 800" fill="none" xmlns="http://www.w3.org/2000/svg">
<path d="M398.902 0H88.575C39.6484 0 0 39.6484 0 88.575V711.427C0 760.352 39.6484 800 88.575 800H398.902C447.827 800 487.5 760.352 487.5 711.427V88.575C487.5 39.6484 447.827 0 398.902 0ZM243.75 756.225C231.103 756.225 220.825 745.97 220.825 733.3C220.825 720.653 231.103 710.4 243.75 710.4C256.397 710.4 266.675 720.655 266.675 733.3C266.675 745.972 256.397 756.225 243.75 756.225ZM412.5 662.5H75V100H412.5V662.5Z" fill="white"/>
</svg>
