<svg width="675" height="675" viewBox="0 0 675 675" fill="none" xmlns="http://www.w3.org/2000/svg">
<path d="M337.083 0C151.688 0 0 151.688 0 337.083C0 522.479 151.688 674.167 337.083 674.167C522.479 674.167 674.167 522.479 674.167 337.083C674.167 151.688 522.479 0 337.083 0ZM502.254 205.621L444.95 482.029C441.579 502.254 428.096 505.625 414.612 495.513L326.971 428.096C306.746 448.321 286.521 465.175 283.15 471.917C276.408 475.287 273.037 482.029 266.296 482.029C256.183 482.029 256.183 475.287 252.812 468.546L222.475 367.421L131.462 337.083C111.237 330.342 111.237 316.858 134.833 306.746L478.658 175.283C492.142 171.912 508.996 178.654 502.254 205.621ZM421.354 235.958L229.217 357.308L259.554 458.433L266.296 391.017L431.467 242.7C441.579 232.587 434.837 232.587 421.354 235.958Z" fill="white"/>
</svg>
